<?xml version="1.0" encoding="utf-8"?>
<!-- Generator: Adobe Illustrator 16.0.0, SVG Export Plug-In . SVG Version: 6.00 Build 0)  -->
<!DOCTYPE svg PUBLIC "-//W3C//DTD SVG 1.1//EN" "http://www.w3.org/Graphics/SVG/1.1/DTD/svg11.dtd">
<svg version="1.1" xmlns="http://www.w3.org/2000/svg" xmlns:xlink="http://www.w3.org/1999/xlink" x="0px" y="0px" width="192px"
	 height="192px" viewBox="0 0 192 192" enable-background="new 0 0 192 192" xml:space="preserve">
<g id="Layer_2">
</g>
<g id="Layer_1">
</g>
<g id="Layer_3">
	<path fill="#FFFFFF" d="M187.76,74.749C178.23,32.013,140.105,0.122,94.493,0.122c-45.616,0-82.604,31.891-92.126,74.627
		c-1.525,6.757-1.166,13.771-1.166,20.947v94.978h48v-12.599c0,0.521-0.006,0.943,0.834,1.412
		c13.666,7.487,28.538,11.783,45.249,11.783c16.701,0,31.969-4.296,45.639-11.783c29.532-16.289,49.339-47.71,49.339-83.791
		C190.262,88.521,189.278,81.506,187.76,74.749z M111.201,135.674h-31v-4h5v-6h6v-11h-6v-5h6v-6h11v6h5v5h-5v11h5v6h4V135.674z
		 M21.961,72.674c9.058-31,38.122-54.569,72.532-54.569c34.408,0,63.471,23.569,72.528,54.569H21.961z"/>
</g>
</svg>
